<?xml version="1.0" encoding="UTF-8"?>
<svg viewBox="0 0 29 38" xmlns="http://www.w3.org/2000/svg">
<path d="m11.427 31.181h-1.3281c-0.0379-0.2178-0.1077-0.4107-0.2095-0.5788-0.1018-0.1705-0.22846-0.3149-0.37998-0.4333-0.15151-0.1183-0.32433-0.2071-0.51846-0.2663-0.19176-0.0616-0.39891-0.0923-0.62145-0.0923-0.39536 0-0.74574 0.0994-1.0511 0.2983-0.30539 0.1965-0.5445 0.4853-0.71733 0.8664-0.17282 0.3788-0.25923 0.8417-0.25923 1.3885 0 0.5564 0.08641 1.0251 0.25923 1.4063 0.17519 0.3788 0.4143 0.6652 0.71733 0.8594 0.3054 0.1917 0.6546 0.2876 1.0476 0.2876 0.2178 0 0.4214-0.0284 0.61079-0.0852 0.19176-0.0592 0.3634-0.1456 0.51492-0.2593 0.15388-0.1136 0.28291-0.2533 0.38707-0.419 0.10654-0.1657 0.17996-0.3551 0.22016-0.5682l1.3281 0.0071c-0.0497 0.3457-0.1574 0.67-0.3231 0.973-0.1634 0.3031-0.3776 0.5706-0.6428 0.8026-0.2651 0.2296-0.57526 0.4096-0.93037 0.5398-0.35511 0.1278-0.74929 0.1917-1.1825 0.1917-0.6392 0-1.2098-0.1479-1.7116-0.4439-0.50189-0.2959-0.89725-0.7232-1.1861-1.2819-0.28883-0.5587-0.43324-1.2287-0.43324-2.01 0-0.7836 0.14559-1.4536 0.43679-2.0099 0.29119-0.5587 0.68773-0.986 1.1896-1.282 0.50189-0.2959 1.0701-0.4439 1.7045-0.4439 0.40483 0 0.78125 0.0569 1.1293 0.1705 0.34802 0.1136 0.65814 0.2805 0.93044 0.5007 0.2722 0.2178 0.4959 0.4853 0.6711 0.8026 0.1776 0.3148 0.2936 0.6747 0.348 1.0795zm2.3193 4.929c-0.3456 0-0.6569-0.0616-0.9339-0.1847-0.2746-0.1254-0.4925-0.3101-0.6534-0.554-0.1587-0.2438-0.238-0.5445-0.238-0.9019 0-0.3078 0.0569-0.5623 0.1705-0.7635 0.1136-0.2013 0.2687-0.3622 0.4652-0.483 0.1965-0.1207 0.4178-0.2119 0.6641-0.2734 0.2485-0.0639 0.5054-0.1101 0.7705-0.1385 0.3197-0.0332 0.5789-0.0628 0.7777-0.0888 0.1989-0.0284 0.3433-0.071 0.4333-0.1278 0.0923-0.0592 0.1385-0.1504 0.1385-0.2735v-0.0213c0-0.2675-0.0793-0.4747-0.2379-0.6214-0.1587-0.1468-0.3871-0.2202-0.6854-0.2202-0.3149 0-0.5646 0.0687-0.7493 0.206-0.1823 0.1373-0.3054 0.2994-0.3693 0.4865l-1.2003-0.1705c0.0947-0.3314 0.2509-0.6084 0.4687-0.831 0.2178-0.2249 0.4842-0.3929 0.799-0.5042 0.3149-0.1137 0.6629-0.1705 1.0441-0.1705 0.2628 0 0.5244 0.0308 0.7848 0.0924 0.2604 0.0615 0.4983 0.1633 0.7138 0.3054 0.2154 0.1396 0.3882 0.3302 0.5184 0.5717 0.1326 0.2415 0.1989 0.5433 0.1989 0.9055v3.6506h-1.2358v-0.7493h-0.0426c-0.0781 0.1515-0.1882 0.2936-0.3303 0.4261-0.1397 0.1303-0.316 0.2356-0.5291 0.3161-0.2107 0.0781-0.4581 0.1172-0.7422 0.1172zm0.3338-0.9446c0.2581 0 0.4818-0.0509 0.6712-0.1527 0.1894-0.1042 0.335-0.2415 0.4368-0.4119 0.1041-0.1705 0.1562-0.3563 0.1562-0.5576v-0.6427c-0.0402 0.0331-0.1089 0.0639-0.2059 0.0923-0.0947 0.0284-0.2013 0.0533-0.3196 0.0746-0.1184 0.0213-0.2356 0.0402-0.3516 0.0568s-0.2166 0.0308-0.3018 0.0426c-0.1918 0.026-0.3634 0.0687-0.515 0.1278-0.1515 0.0592-0.271 0.1421-0.3586 0.2486-0.0876 0.1042-0.1314 0.2391-0.1314 0.4049 0 0.2367 0.0864 0.4154 0.2592 0.5362 0.1728 0.1207 0.393 0.1811 0.6605 0.1811zm3.4388 0.8345v-5.4545h1.2465v0.909h0.0568c0.0994-0.3148 0.2699-0.5575 0.5113-0.7279 0.2439-0.1729 0.5221-0.2593 0.8346-0.2593 0.071 0 0.1503 0.0036 0.2379 0.0107 0.0899 0.0047 0.1645 0.013 0.2237 0.0248v1.1826c-0.0545-0.019-0.1409-0.0355-0.2592-0.0497-0.116-0.0166-0.2285-0.0249-0.3374-0.0249-0.2344 0-0.4451 0.0509-0.6321 0.1527-0.1847 0.0994-0.3302 0.2379-0.4368 0.4155-0.1065 0.1775-0.1598 0.3823-0.1598 0.6143v3.2067h-1.2855zm6.5815-5.4545v0.9943h-3.1356v-0.9943h3.1356zm-2.3615-1.3069h1.2855v5.1208c0 0.1728 0.0261 0.3054 0.0782 0.3977 0.0544 0.09 0.1254 0.1515 0.213 0.1847 0.0876 0.0331 0.1847 0.0497 0.2912 0.0497 0.0805 0 0.1539-0.0059 0.2202-0.0178 0.0687-0.0118 0.1207-0.0225 0.1563-0.0319l0.2166 1.0049c-0.0687 0.0237-0.1669 0.0497-0.2948 0.0782-0.1254 0.0284-0.2793 0.0449-0.4616 0.0497-0.322 0.0094-0.612-0.0391-0.87-0.1456-0.2581-0.1089-0.4629-0.277-0.6144-0.5043-0.1491-0.2273-0.2225-0.5113-0.2202-0.8523v-5.3338z" fill="#152536"/>
<path d="m14 1.5c0.9946 0 1.9484 0.39509 2.6517 1.0984 0.7032 0.70326 1.0983 1.6571 1.0983 2.6516v0.75h-7.5v-0.75c0-0.99456 0.3951-1.9484 1.0983-2.6516 0.7033-0.70326 1.6571-1.0984 2.6517-1.0984zm5.25 4.5v-0.75c0-1.3924-0.5531-2.7277-1.5377-3.7123-0.9846-0.98457-2.3199-1.5377-3.7123-1.5377s-2.7277 0.55312-3.7123 1.5377c-0.98458 0.98457-1.5377 2.3199-1.5377 3.7123v0.75h-5.25v15c0 0.7956 0.31607 1.5587 0.87868 2.1213s1.3257 0.8787 2.1213 0.8787h15c0.7956 0 1.5587-0.3161 2.1213-0.8787s0.8787-1.3257 0.8787-2.1213v-15h-5.25zm-14.25 1.5h18v13.5c0 0.3978-0.158 0.7794-0.4393 1.0607s-0.6629 0.4393-1.0607 0.4393h-15c-0.39782 0-0.77936-0.158-1.0607-0.4393s-0.43934-0.6629-0.43934-1.0607v-13.5z" fill="#212529"/>
</svg>
