<?xml version="1.0" encoding="UTF-8"?>
<svg viewBox="0 0 29 38" xmlns="http://www.w3.org/2000/svg">
<path d="m11.75 21.75v-5.2575c0-0.3675 0.375-0.7425 0.75-0.7425h3c0.375 0 0.75 0.375 0.75 0.75v5.25c0 0.1989 0.079 0.3897 0.2197 0.5303 0.1406 0.1407 0.3314 0.2197 0.5303 0.2197h6c0.1989 0 0.3897-0.079 0.5303-0.2197 0.1407-0.1406 0.2197-0.3314 0.2197-0.5303v-10.5c2e-4 -0.0986-0.0191-0.1962-0.0567-0.2873-0.0375-0.0911-0.0927-0.1739-0.1623-0.2437l-2.031-2.0295v-4.9395c0-0.19891-0.079-0.38968-0.2197-0.53033-0.1406-0.14065-0.3314-0.21967-0.5303-0.21967h-1.5c-0.1989 0-0.3897 0.07902-0.5303 0.21967-0.1407 0.14065-0.2197 0.33142-0.2197 0.53033v1.9395l-3.969-3.9705c-0.0697-0.06985-0.1524-0.12526-0.2435-0.16307-0.0912-0.03781-0.1888-0.05727-0.2875-0.05727-0.0986 0-0.1963 0.01946-0.2874 0.05727-0.0912 0.03781-0.1739 0.09322-0.2436 0.16307l-9 9c-0.0696 0.0698-0.12477 0.1526-0.16235 0.2437-0.03757 0.0911-0.05682 0.1887-0.05665 0.2873v10.5c0 0.1989 0.07902 0.3897 0.21967 0.5303 0.14065 0.1407 0.33142 0.2197 0.53033 0.2197h6c0.1989 0 0.3897-0.079 0.5303-0.2197 0.1407-0.1406 0.2197-0.3314 0.2197-0.5303z" fill="#212529"/>
<path d="m0.71733 36v-7.2727h1.3175v3.0788h3.37v-3.0788h1.321v7.2727h-1.321v-3.0895h-3.37v3.0895h-1.3175zm9.3639 0.1065c-0.53269 0-0.99434-0.1172-1.385-0.3515-0.39063-0.2344-0.69366-0.5623-0.9091-0.9837-0.21306-0.4214-0.3196-0.9138-0.3196-1.4773 0-0.5634 0.10654-1.057 0.3196-1.4808 0.21544-0.4238 0.51847-0.7528 0.9091-0.9872 0.39062-0.2344 0.85227-0.3516 1.385-0.3516 0.5326 0 0.9943 0.1172 1.3849 0.3516s0.6925 0.5634 0.9056 0.9872c0.2154 0.4238 0.3231 0.9174 0.3231 1.4808 0 0.5635-0.1077 1.0559-0.3231 1.4773-0.2131 0.4214-0.515 0.7493-0.9056 0.9837-0.3906 0.2343-0.8523 0.3515-1.3849 0.3515zm0.0071-1.0298c0.2888 0 0.5303-0.0793 0.7244-0.2379 0.1941-0.161 0.3386-0.3764 0.4333-0.6463 0.097-0.2699 0.1455-0.5706 0.1455-0.902 0-0.3338-0.0485-0.6357-0.1455-0.9056-0.0947-0.2722-0.2392-0.4888-0.4333-0.6498s-0.4356-0.2415-0.7244-0.2415c-0.29595 0-0.54216 0.0805-0.73866 0.2415-0.19412 0.161-0.33972 0.3776-0.43678 0.6498-0.0947 0.2699-0.14205 0.5718-0.14205 0.9056 0 0.3314 0.04735 0.6321 0.14205 0.902 0.09706 0.2699 0.24266 0.4853 0.43678 0.6463 0.1965 0.1586 0.44271 0.2379 0.73866 0.2379zm3.2976 0.9233v-5.4545h1.2287v0.9268h0.0639c0.1137-0.3125 0.3019-0.5563 0.5646-0.7315 0.2628-0.1776 0.5765-0.2664 0.9411-0.2664 0.3693 0 0.6806 0.09 0.9339 0.2699 0.2557 0.1776 0.4357 0.4202 0.5398 0.728h0.0568c0.1208-0.303 0.3244-0.5445 0.6108-0.7244 0.2889-0.1823 0.631-0.2735 1.0263-0.2735 0.5019 0 0.9115 0.1586 1.2287 0.4759 0.3172 0.3172 0.4759 0.7801 0.4759 1.3885v3.6612h-1.2891v-3.4624c0-0.3385-0.09-0.5859-0.2699-0.7421-0.1799-0.1587-0.4001-0.238-0.6605-0.238-0.3101 0-0.5528 0.0971-0.728 0.2912-0.1728 0.1918-0.2592 0.4415-0.2592 0.7493v3.402h-1.2607v-3.5156c0-0.2817-0.0852-0.5067-0.2557-0.6747-0.168-0.1681-0.3882-0.2522-0.6605-0.2522-0.1846 0-0.3527 0.0474-0.5042 0.1421-0.1515 0.0923-0.2723 0.2237-0.3622 0.3942-0.09 0.168-0.135 0.3645-0.135 0.5894v3.3168h-1.2855zm10.989 0.1065c-0.5469 0-1.0192-0.1136-1.4169-0.3409-0.3954-0.2296-0.6996-0.554-0.9127-0.973-0.213-0.4214-0.3196-0.9174-0.3196-1.4879 0-0.5611 0.1066-1.0535 0.3196-1.4773 0.2155-0.4261 0.5161-0.7576 0.902-0.9943 0.3859-0.2391 0.8393-0.3587 1.3601-0.3587 0.3362 0 0.6534 0.0545 0.9517 0.1634 0.3007 0.1065 0.5658 0.2722 0.7955 0.4971 0.232 0.2249 0.4143 0.5114 0.5468 0.8594 0.1326 0.3457 0.1989 0.7576 0.1989 1.2358v0.3942h-4.4709v-0.8665h3.2387c-0.0024-0.2462-0.0557-0.4652-0.1598-0.6569-0.1042-0.1942-0.2498-0.3469-0.4368-0.4581-0.1847-0.1113-0.4001-0.1669-0.6463-0.1669-0.2628 0-0.4936 0.0639-0.6925 0.1917-0.1989 0.1255-0.3539 0.2912-0.4652 0.4972-0.1089 0.2036-0.1645 0.4273-0.1669 0.6711v0.7564c0 0.3173 0.058 0.5895 0.174 0.8168 0.116 0.2249 0.2782 0.3977 0.4865 0.5185 0.2083 0.1183 0.4522 0.1775 0.7315 0.1775 0.1871 0 0.3563-0.026 0.5079-0.0781 0.1515-0.0545 0.2829-0.1338 0.3941-0.2379 0.1113-0.1042 0.1953-0.2332 0.2522-0.3871l1.2002 0.1349c-0.0757 0.3173-0.2201 0.5943-0.4332 0.831-0.2107 0.2344-0.4806 0.4167-0.8097 0.5469-0.329 0.1278-0.7054 0.1917-1.1292 0.1917z" fill="#152536"/>
</svg>
