<?xml version="1.0" encoding="UTF-8"?>
<svg viewBox="0 0 33 38" xmlns="http://www.w3.org/2000/svg">
<path d="m8.1339 32.364c0 0.7837-0.14678 1.4548-0.44034 2.0135-0.2912 0.5564-0.68892 0.9825-1.1932 1.2784-0.5019 0.296-1.0713 0.4439-1.7081 0.4439s-1.2074-0.1479-1.7116-0.4439c-0.50189-0.2983-0.89962-0.7256-1.1932-1.2819-0.29119-0.5587-0.43679-1.2287-0.43679-2.01 0-0.7836 0.1456-1.4536 0.43679-2.0099 0.29356-0.5587 0.69129-0.986 1.1932-1.282 0.50426-0.2959 1.0748-0.4439 1.7116-0.4439s1.2062 0.148 1.7081 0.4439c0.50426 0.296 0.90198 0.7233 1.1932 1.282 0.29356 0.5563 0.44034 1.2263 0.44034 2.0099zm-1.3246 0c0-0.5516-0.08641-1.0168-0.25923-1.3956-0.17045-0.3811-0.4072-0.6688-0.71023-0.8629-0.30303-0.1965-0.65222-0.2947-1.0476-0.2947s-0.74456 0.0982-1.0476 0.2947c-0.30303 0.1941-0.54095 0.4818-0.71378 0.8629-0.17045 0.3788-0.25568 0.844-0.25568 1.3956s0.08523 1.018 0.25568 1.3992c0.17283 0.3788 0.41075 0.6664 0.71378 0.8629 0.30303 0.1941 0.65223 0.2912 1.0476 0.2912s0.74455-0.0971 1.0476-0.2912c0.30303-0.1965 0.53978-0.4841 0.71023-0.8629 0.17282-0.3812 0.25923-0.8476 0.25923-1.3992zm2.1133 3.6364v-5.4545h1.2465v0.909h0.0568c0.0994-0.3148 0.2699-0.5575 0.5114-0.7279 0.2438-0.1729 0.522-0.2593 0.8345-0.2593 0.071 0 0.1503 0.0036 0.2379 0.0107 0.09 0.0047 0.1645 0.013 0.2237 0.0248v1.1826c-0.0544-0.019-0.1408-0.0355-0.2592-0.0497-0.116-0.0166-0.2285-0.0249-0.3374-0.0249-0.2343 0-0.4451 0.0509-0.6321 0.1527-0.1846 0.0994-0.3302 0.2379-0.4368 0.4155-0.1065 0.1775-0.1598 0.3823-0.1598 0.6143v3.2067h-1.2855zm5.3644 0.0959c-0.4285 0-0.812-0.1101-1.1506-0.3303-0.3385-0.2201-0.606-0.5397-0.8025-0.9588-0.1965-0.419-0.2948-0.928-0.2948-1.527 0-0.606 0.0995-1.1174 0.2983-1.5341 0.2013-0.419 0.4723-0.735 0.8132-0.9481 0.3409-0.2155 0.7209-0.3232 1.14-0.3232 0.3196 0 0.5823 0.0545 0.7883 0.1634 0.206 0.1065 0.3693 0.2355 0.4901 0.3871 0.1207 0.1491 0.2142 0.29 0.2805 0.4225h0.0533v-2.7201h1.289v7.2727h-1.2642v-0.8594h-0.0781c-0.0663 0.1326-0.1622 0.2735-0.2876 0.4226-0.1255 0.1468-0.2912 0.2723-0.4972 0.3764-0.206 0.1042-0.4652 0.1563-0.7777 0.1563zm0.3587-1.0547c0.2722 0 0.5042-0.0734 0.696-0.2202 0.1918-0.1491 0.3373-0.3563 0.4368-0.6214 0.0994-0.2652 0.1491-0.5741 0.1491-0.9269 0-0.3527-0.0497-0.6593-0.1491-0.9197-0.0971-0.2604-0.2415-0.4628-0.4333-0.6073-0.1894-0.1444-0.4225-0.2166-0.6995-0.2166-0.2865 0-0.5256 0.0746-0.7174 0.2237-0.1917 0.1492-0.3361 0.3552-0.4332 0.6179-0.0971 0.2628-0.1456 0.5635-0.1456 0.902 0 0.3409 0.0485 0.6452 0.1456 0.9127 0.0994 0.2651 0.245 0.4746 0.4368 0.6285 0.1941 0.1515 0.432 0.2273 0.7138 0.2273zm5.9308 1.0653c-0.5469 0-1.0192-0.1136-1.4169-0.3409-0.3954-0.2296-0.6996-0.554-0.9127-0.973-0.2131-0.4214-0.3196-0.9174-0.3196-1.4879 0-0.5611 0.1065-1.0535 0.3196-1.4773 0.2154-0.4261 0.5161-0.7576 0.902-0.9943 0.3859-0.2391 0.8393-0.3587 1.3601-0.3587 0.3362 0 0.6534 0.0545 0.9517 0.1634 0.3007 0.1065 0.5658 0.2722 0.7954 0.4971 0.2321 0.2249 0.4143 0.5114 0.5469 0.8594 0.1326 0.3457 0.1989 0.7576 0.1989 1.2358v0.3942h-4.4709v-0.8665h3.2386c-0.0023-0.2462-0.0556-0.4652-0.1598-0.6569-0.1041-0.1942-0.2497-0.3469-0.4368-0.4581-0.1846-0.1113-0.4-0.1669-0.6463-0.1669-0.2627 0-0.4936 0.0639-0.6924 0.1917-0.1989 0.1255-0.354 0.2912-0.4652 0.4972-0.1089 0.2036-0.1646 0.4273-0.1669 0.6711v0.7564c0 0.3173 0.058 0.5895 0.174 0.8168 0.116 0.2249 0.2781 0.3977 0.4865 0.5185 0.2083 0.1183 0.4522 0.1775 0.7315 0.1775 0.187 0 0.3563-0.026 0.5078-0.0781 0.1515-0.0545 0.2829-0.1338 0.3942-0.2379 0.1113-0.1042 0.1953-0.2332 0.2521-0.3871l1.2003 0.1349c-0.0757 0.3173-0.2202 0.5943-0.4332 0.831-0.2107 0.2344-0.4806 0.4167-0.8097 0.5469-0.3291 0.1278-0.7055 0.1917-1.1292 0.1917zm3.1129-0.1065v-5.4545h1.2465v0.909h0.0568c0.0994-0.3148 0.2699-0.5575 0.5113-0.7279 0.2439-0.1729 0.5221-0.2593 0.8346-0.2593 0.071 0 0.1503 0.0036 0.2379 0.0107 0.09 0.0047 0.1645 0.013 0.2237 0.0248v1.1826c-0.0544-0.019-0.1408-0.0355-0.2592-0.0497-0.116-0.0166-0.2285-0.0249-0.3374-0.0249-0.2344 0-0.4451 0.0509-0.6321 0.1527-0.1846 0.0994-0.3302 0.2379-0.4368 0.4155-0.1065 0.1775-0.1598 0.3823-0.1598 0.6143v3.2067h-1.2855zm7.8759-4.0128-1.1718 0.1279c-0.0332-0.1184-0.0912-0.2297-0.174-0.3339-0.0805-0.1041-0.1894-0.1882-0.3267-0.2521-0.1374-0.0639-0.3054-0.0959-0.5043-0.0959-0.2675 0-0.4924 0.058-0.6747 0.174-0.1799 0.116-0.2687 0.2664-0.2664 0.451-0.0023 0.1587 0.0557 0.2877 0.174 0.3871 0.1208 0.0994 0.3197 0.1811 0.5966 0.245l0.9304 0.1989c0.5161 0.1113 0.8997 0.2876 1.1506 0.5291 0.2533 0.2415 0.3812 0.5576 0.3835 0.9482-0.0023 0.3433-0.103 0.6463-0.3018 0.9091-0.1965 0.2604-0.47 0.464-0.8203 0.6108-0.3504 0.1467-0.7529 0.2201-1.2074 0.2201-0.6676 0-1.205-0.1396-1.6122-0.419-0.4072-0.2817-0.6499-0.6735-0.728-1.1754l1.2535-0.1208c0.0569 0.2462 0.1776 0.4321 0.3623 0.5576 0.1846 0.1254 0.4249 0.1882 0.7208 0.1882 0.3054 0 0.5505-0.0628 0.7351-0.1882 0.187-0.1255 0.2806-0.2806 0.2806-0.4652 0-0.1563-0.0604-0.2853-0.1812-0.3871-0.1183-0.1018-0.303-0.1799-0.5539-0.2344l-0.9304-0.1953c-0.5232-0.1089-0.9103-0.2924-1.1612-0.5504-0.251-0.2604-0.3753-0.5895-0.3729-0.9872-0.0024-0.3362 0.0888-0.6274 0.2734-0.8736 0.187-0.2486 0.4463-0.4404 0.7777-0.5753 0.3338-0.1373 0.7185-0.206 1.1541-0.206 0.6392 0 1.1423 0.1362 1.5093 0.4084 0.3693 0.2723 0.5977 0.6404 0.6853 1.1044z" fill="#152536"/>
<path d="m4 3.75c0-0.19891 0.07902-0.38968 0.21967-0.53033s0.33142-0.21967 0.53033-0.21967h2.25c0.1673 5e-5 0.32978 0.05603 0.4616 0.15904s0.22541 0.24714 0.2659 0.40946l0.6075 2.4315h17.415c0.1139 3e-5 0.2263 0.02602 0.3287 0.07598s0.1921 0.12259 0.2622 0.21238c0.0701 0.08978 0.1189 0.19436 0.1425 0.3058 0.0237 0.11144 0.0217 0.2268-0.0059 0.33734l-2.25 9c-0.0405 0.1623-0.1341 0.3065-0.2659 0.4095s-0.2943 0.159-0.4616 0.159h-13.5c-0.1673 0-0.32978-0.056-0.4616-0.159s-0.22541-0.2472-0.2659-0.4095l-2.8575-11.432h-1.665c-0.19891 0-0.38968-0.07902-0.53033-0.21967s-0.21967-0.33142-0.21967-0.53033zm4.71 3.75 1.875 7.5h12.33l1.875-7.5h-16.08zm2.79 12c-0.3978 0-0.7794 0.158-1.0607 0.4393s-0.4393 0.6629-0.4393 1.0607 0.158 0.7794 0.4393 1.0607 0.6629 0.4393 1.0607 0.4393 0.7794-0.158 1.0607-0.4393 0.4393-0.6629 0.4393-1.0607-0.158-0.7794-0.4393-1.0607-0.6629-0.4393-1.0607-0.4393zm-3 1.5c0-0.7956 0.31607-1.5587 0.87868-2.1213s1.3257-0.8787 2.1213-0.8787 1.5587 0.3161 2.1213 0.8787 0.8787 1.3257 0.8787 2.1213-0.3161 1.5587-0.8787 2.1213-1.3257 0.8787-2.1213 0.8787-1.5587-0.3161-2.1213-0.8787-0.87868-1.3257-0.87868-2.1213zm13.5-1.5c-0.3978 0-0.7794 0.158-1.0607 0.4393s-0.4393 0.6629-0.4393 1.0607 0.158 0.7794 0.4393 1.0607 0.6629 0.4393 1.0607 0.4393 0.7794-0.158 1.0607-0.4393 0.4393-0.6629 0.4393-1.0607-0.158-0.7794-0.4393-1.0607-0.6629-0.4393-1.0607-0.4393zm-3 1.5c0-0.7956 0.3161-1.5587 0.8787-2.1213s1.3257-0.8787 2.1213-0.8787 1.5587 0.3161 2.1213 0.8787 0.8787 1.3257 0.8787 2.1213-0.3161 1.5587-0.8787 2.1213-1.3257 0.8787-2.1213 0.8787-1.5587-0.3161-2.1213-0.8787-0.8787-1.3257-0.8787-2.1213z" fill="#212529"/>
</svg>
