<?xml version="1.0" encoding="UTF-8"?>
<svg viewBox="0 0 33 38" xmlns="http://www.w3.org/2000/svg">
<path d="m4.6502 36-2.0526-7.2727h1.4169l1.3104 5.3444h0.06747l1.3992-5.3444h1.2891l1.4027 5.348h0.06392l1.3104-5.348h1.4169l-2.0526 7.2727h-1.2997l-1.456-5.103h-0.05681l-1.4595 5.103h-1.2997zm9.094 0.1101c-0.3457 0-0.657-0.0616-0.934-0.1847-0.2746-0.1254-0.4924-0.3101-0.6534-0.554-0.1586-0.2438-0.2379-0.5445-0.2379-0.9019 0-0.3078 0.0568-0.5623 0.1704-0.7635 0.1137-0.2013 0.2687-0.3622 0.4652-0.483 0.1965-0.1207 0.4179-0.2119 0.6641-0.2734 0.2486-0.0639 0.5055-0.1101 0.7706-0.1385 0.3196-0.0332 0.5788-0.0628 0.7777-0.0888 0.1989-0.0284 0.3433-0.071 0.4332-0.1278 0.0924-0.0592 0.1385-0.1504 0.1385-0.2735v-0.0213c0-0.2675-0.0793-0.4747-0.2379-0.6214-0.1586-0.1468-0.3871-0.2202-0.6854-0.2202-0.3148 0-0.5646 0.0687-0.7492 0.206-0.1823 0.1373-0.3054 0.2994-0.3694 0.4865l-1.2003-0.1705c0.0947-0.3314 0.251-0.6084 0.4688-0.831 0.2178-0.2249 0.4841-0.3929 0.799-0.5042 0.3149-0.1137 0.6629-0.1705 1.044-0.1705 0.2628 0 0.5244 0.0308 0.7848 0.0924 0.2605 0.0615 0.4984 0.1633 0.7138 0.3054 0.2155 0.1396 0.3883 0.3302 0.5185 0.5717 0.1326 0.2415 0.1988 0.5433 0.1988 0.9055v3.6506h-1.2357v-0.7493h-0.0427c-0.0781 0.1515-0.1882 0.2936-0.3302 0.4261-0.1397 0.1303-0.3161 0.2356-0.5291 0.3161-0.2107 0.0781-0.4581 0.1172-0.7422 0.1172zm0.3338-0.9446c0.258 0 0.4818-0.0509 0.6711-0.1527 0.1894-0.1042 0.335-0.2415 0.4368-0.4119 0.1042-0.1705 0.1563-0.3563 0.1563-0.5576v-0.6427c-0.0403 0.0331-0.1089 0.0639-0.206 0.0923-0.0947 0.0284-0.2012 0.0533-0.3196 0.0746s-0.2355 0.0402-0.3515 0.0568-0.2167 0.0308-0.3019 0.0426c-0.1918 0.026-0.3634 0.0687-0.5149 0.1278-0.1515 0.0592-0.2711 0.1421-0.3587 0.2486-0.0876 0.1042-0.1314 0.2391-0.1314 0.4049 0 0.2367 0.0865 0.4154 0.2593 0.5362 0.1728 0.1207 0.393 0.1811 0.6605 0.1811zm4.7243-6.4382v7.2727h-1.2855v-7.2727h1.2855zm2.2074 0v7.2727h-1.2855v-7.2727h1.2855zm3.3367 7.3792c-0.5469 0-1.0192-0.1136-1.4169-0.3409-0.3954-0.2296-0.6996-0.554-0.9127-0.973-0.213-0.4214-0.3196-0.9174-0.3196-1.4879 0-0.5611 0.1066-1.0535 0.3196-1.4773 0.2155-0.4261 0.5161-0.7576 0.902-0.9943 0.3859-0.2391 0.8393-0.3587 1.3601-0.3587 0.3362 0 0.6534 0.0545 0.9517 0.1634 0.3007 0.1065 0.5658 0.2722 0.7955 0.4971 0.232 0.2249 0.4143 0.5114 0.5468 0.8594 0.1326 0.3457 0.1989 0.7576 0.1989 1.2358v0.3942h-4.4709v-0.8665h3.2387c-0.0024-0.2462-0.0557-0.4652-0.1598-0.6569-0.1042-0.1942-0.2498-0.3469-0.4368-0.4581-0.1847-0.1113-0.4001-0.1669-0.6463-0.1669-0.2628 0-0.4936 0.0639-0.6925 0.1917-0.1989 0.1255-0.3539 0.2912-0.4652 0.4972-0.1089 0.2036-0.1645 0.4273-0.1669 0.6711v0.7564c0 0.3173 0.058 0.5895 0.174 0.8168 0.116 0.2249 0.2782 0.3977 0.4865 0.5185 0.2083 0.1183 0.4522 0.1775 0.7315 0.1775 0.1871 0 0.3563-0.026 0.5078-0.0781 0.1516-0.0545 0.283-0.1338 0.3942-0.2379 0.1113-0.1042 0.1953-0.2332 0.2522-0.3871l1.2002 0.1349c-0.0757 0.3173-0.2201 0.5943-0.4332 0.831-0.2107 0.2344-0.4806 0.4167-0.8097 0.5469-0.329 0.1278-0.7055 0.1917-1.1292 0.1917zm5.8367-5.561v0.9943h-3.1357v-0.9943h3.1357zm-2.3615-1.3069h1.2855v5.1208c0 0.1728 0.026 0.3054 0.0781 0.3977 0.0544 0.09 0.1255 0.1515 0.2131 0.1847 0.0876 0.0331 0.1846 0.0497 0.2912 0.0497 0.0804 0 0.1538-0.0059 0.2201-0.0178 0.0687-0.0118 0.1208-0.0225 0.1563-0.0319l0.2166 1.0049c-0.0687 0.0237-0.1669 0.0497-0.2948 0.0782-0.1254 0.0284-0.2793 0.0449-0.4616 0.0497-0.322 0.0094-0.612-0.0391-0.87-0.1456-0.2581-0.1089-0.4629-0.277-0.6144-0.5043-0.1491-0.2273-0.2225-0.5113-0.2201-0.8523v-5.3338z" fill="#152536"/>
<path d="m22.204 0.489c0.3316-0.082945 0.6777-0.089253 1.0121-0.018445 0.3344 0.070807 0.6483 0.21687 0.9178 0.4271 0.2695 0.21023 0.4875 0.4791 0.6376 0.7862 0.1501 0.30709 0.2282 0.64435 0.2285 0.98615v1.83h0.75c0.5967 0 1.169 0.23705 1.591 0.65901 0.4219 0.42196 0.659 0.99425 0.659 1.591v13.5c0 0.5967-0.2371 1.169-0.659 1.591-0.422 0.422-0.9943 0.659-1.591 0.659h-19.5c-0.59674 0-1.169-0.237-1.591-0.659s-0.65901-0.9943-0.65901-1.591v-13.5c-2.1e-4 -0.57922 0.22296-1.1362 0.62307-1.555 0.4001-0.41882 0.94631-0.66721 1.5249-0.69347l16.056-4.0125zm-9.861 4.011h11.157v-1.83c-3e-4 -0.1138-0.0264-0.22604-0.0765-0.32824-0.05-0.10219-0.1227-0.19165-0.2124-0.2616-0.0898-0.06996-0.1943-0.11857-0.3056-0.14216-0.1114-0.02359-0.2266-0.02154-0.337 6e-3l-10.226 2.556zm-6.093 1.5c-0.19891 0-0.38968 0.07902-0.53033 0.21967s-0.21967 0.33142-0.21967 0.53033v13.5c0 0.1989 0.07902 0.3897 0.21967 0.5303 0.14065 0.1407 0.33142 0.2197 0.53033 0.2197h19.5c0.1989 0 0.3897-0.079 0.5303-0.2197 0.1407-0.1406 0.2197-0.3314 0.2197-0.5303v-13.5c0-0.19891-0.079-0.38968-0.2197-0.53033-0.1406-0.14065-0.3314-0.21967-0.5303-0.21967h-19.5z" fill="#212529"/>
</svg>
