<?xml version="1.0" encoding="UTF-8"?>
<svg width="20" height="20" fill="none" viewBox="0 0 24 24" xmlns="http://www.w3.org/2000/svg">
<path d="m18 18.5c-0.3978 0-0.7794-0.158-1.0607-0.4393s-0.4393-0.6629-0.4393-1.0607 0.158-0.7794 0.4393-1.0607 0.6629-0.4393 1.0607-0.4393 0.7794 0.158 1.0607 0.4393 0.4393 0.6629 0.4393 1.0607-0.158 0.7794-0.4393 1.0607-0.6629 0.4393-1.0607 0.4393zm1.5-9 1.96 2.5h-4.46v-2.5m-11 9c-0.39782 0-0.77936-0.158-1.0607-0.4393s-0.43934-0.6629-0.43934-1.0607 0.15804-0.7794 0.43934-1.0607 0.66284-0.4393 1.0607-0.4393 0.77936 0.158 1.0607 0.4393 0.43934 0.6629 0.43934 1.0607-0.15804 0.7794-0.43934 1.0607-0.66284 0.4393-1.0607 0.4393zm14-10.5h-3v-4h-14c-1.11 0-2 0.89-2 2v11h2c0 0.7956 0.31607 1.5587 0.87868 2.1213s1.3257 0.8787 2.1213 0.8787 1.5587-0.3161 2.1213-0.8787 0.87868-1.3257 0.87868-2.1213h6c0 0.7956 0.3161 1.5587 0.8787 2.1213s1.3257 0.8787 2.1213 0.8787 1.5587-0.3161 2.1213-0.8787 0.8787-1.3257 0.8787-2.1213h2v-5l-3-4z" fill="currentColor"/>
</svg>
