<?xml version="1.0" encoding="UTF-8"?>
<svg width="20" height="20" fill="none" viewBox="0 0 21 21" xmlns="http://www.w3.org/2000/svg">
<path d="m11.409 0.513c-0.9036-0.36636-1.9144-0.36636-2.818 0l-2.19 0.888 9.592 3.73 3.374-1.303c-0.1388-0.11411-0.2938-0.2068-0.46-0.275l-7.498-3.04zm8.591 4.678-9.25 3.574v2.3c0.6072-0.6523 1.3424-1.1724 2.1597-1.5277s1.6991-0.53821 2.5903-0.53728c1.747 0 3.332 0.689 4.5 1.81v-5.619zm-10.75 3.574v4.945c-0.16638 0.5824-0.25053 1.1853-0.25 1.791 0 0.621 0.087 1.222 0.25 1.79v2.397c-0.22498-0.0473-0.44546-0.1139-0.659-0.199l-7.498-3.04c-0.32297-0.1308-0.59953-0.3551-0.79425-0.644-0.19473-0.289-0.29875-0.6295-0.29875-0.978v-9.635l9.25 3.573zm-8.617-4.937 9.367 3.619 3.917-1.514-9.543-3.71-3.281 1.33c-0.17067 0.06933-0.324 0.161-0.46 0.275zm14.867 17.172c1.4587 0 2.8576-0.5795 3.8891-1.6109 1.0314-1.0315 1.6109-2.4304 1.6109-3.8891s-0.5795-2.8576-1.6109-3.8891c-1.0315-1.0314-2.4304-1.6109-3.8891-1.6109s-2.8576 0.5795-3.8891 1.6109c-1.0314 1.0315-1.6109 2.4304-1.6109 3.8891s0.5795 2.8576 1.6109 3.8891c1.0315 1.0314 2.4304 1.6109 3.8891 1.6109zm2.646-7.854c0.0938-0.0939 0.221-0.1467 0.3536-0.1468 0.1327-1e-4 0.26 0.0525 0.3539 0.1463s0.1467 0.221 0.1468 0.3536c1e-4 0.1327-0.0525 0.26-0.1463 0.3539l-4 4c-0.0464 0.0466-0.1016 0.0835-0.1624 0.1087-0.0607 0.0252-0.1258 0.0382-0.1916 0.0382s-0.1309-0.013-0.1916-0.0382c-0.0608-0.0252-0.116-0.0621-0.1624-0.1087l-2-2c-0.0464-0.0465-0.0832-0.1017-0.1083-0.1624s-0.038-0.1258-0.038-0.1915c1e-4 -0.0657 0.0131-0.1307 0.0382-0.1914 0.0252-0.0607 0.0621-0.1158 0.1086-0.1622s0.1017-0.0832 0.1624-0.1083 0.1258-0.038 0.1915-0.038c0.0657 1e-4 0.1307 0.0131 0.1914 0.0382 0.0607 0.0252 0.1158 0.0621 0.1622 0.1086l1.646 1.647 3.646-3.647z" fill="currentColor"/>
</svg>
