<?xml version="1.0" encoding="UTF-8"?>
<svg width="20" height="20" fill="none" viewBox="0 0 16 16" xmlns="http://www.w3.org/2000/svg">
<path d="m4.036 2.488 6.611 2.833-2.647 1.134-6.573-2.817c0.148-0.151 0.329-0.273 0.535-0.352l2.074-0.798zm1.338-0.514 1.55-0.596c0.69295-0.26639 1.46-0.26639 2.153 0l4.962 1.908c0.205 0.08 0.386 0.2 0.534 0.352l-2.656 1.138-6.543-2.802zm9.62 2.572-6.494 2.783v7.45c0.19667-0.0333 0.389-0.086 0.577-0.158l4.962-1.909c0.2829-0.1089 0.5261-0.301 0.6977-0.5509 0.1715-0.2499 0.2633-0.546 0.2633-0.8491v-6.626c0-0.04667-0.0023-0.09333-7e-3 -0.14m-7.493 10.233v-7.45l-6.493-2.783c-0.00397 0.04657-0.0063 0.09326-7e-3 0.14v6.626c4e-5 0.3032 0.09199 0.5994 0.26373 0.8493s0.4152 0.4419 0.69827 0.5507l4.961 1.909c0.188 0.072 0.38033 0.1247 0.577 0.158z" fill="currentColor"/>
</svg>
