<?xml version="1.0" encoding="UTF-8"?>
<svg width="20" height="20" fill="none" viewBox="0 0 24 24" xmlns="http://www.w3.org/2000/svg">
<path d="m2.289 12.998c-0.13667 0-0.251-0.048-0.343-0.144s-0.138-0.215-0.138-0.357 0.048-0.2607 0.144-0.356 0.21467-0.143 0.356-0.143h3.48c0.142 0 0.261 0.048 0.357 0.144s0.144 0.215 0.144 0.357-0.048 0.2607-0.144 0.356-0.21467 0.143-0.356 0.143h-3.5zm5.213 6.002c-0.69333 0-1.2837-0.2433-1.771-0.73-0.48733-0.4847-0.731-1.0747-0.731-1.77h-1.384c-0.22333 0-0.40167-0.0833-0.535-0.25s-0.17767-0.357-0.133-0.571l0.321-1.181h2.495c0.55867 0 1.031-0.1933 1.417-0.58s0.579-0.86 0.579-1.42c0-0.3067-0.06667-0.59-0.2-0.85s-0.31867-0.4753-0.556-0.646h1.815c0.56 0 1.0333-0.1933 1.42-0.58 0.3867-0.3867 0.58-0.85967 0.58-1.419s-0.1933-1.0327-0.58-1.42c-0.38667-0.38733-0.86-0.581-1.42-0.581h-3.492l0.304-1.1c0.06133-0.262 0.19133-0.47767 0.39-0.647 0.19667-0.17 0.43433-0.255 0.713-0.255h10.054c0.256 0 0.465 0.10267 0.627 0.308 0.1613 0.20533 0.213 0.434 0.155 0.686l-0.572 2.506h1.271c0.256 0 0.4983 0.05733 0.727 0.172 0.2293 0.114 0.418 0.272 0.566 0.474l1.797 2.398c0.1453 0.1947 0.2397 0.3977 0.283 0.609 0.044 0.2107 0.0473 0.432 0.01 0.664l-0.598 3.037c-0.0373 0.1947-0.132 0.351-0.284 0.469s-0.3247 0.177-0.518 0.177h-0.483c0 0.6927-0.2427 1.2827-0.728 1.77s-1.0753 0.7307-1.77 0.73-1.285-0.244-1.771-0.73c-0.4867-0.4853-0.73-1.0753-0.73-1.77h-4.77c0 0.6927-0.24267 1.2827-0.728 1.77s-1.0753 0.7307-1.77 0.73zm-3.212-9.498c-0.142 0-0.261-0.048-0.357-0.144s-0.144-0.215-0.144-0.357 0.048-0.26067 0.144-0.356 0.21467-0.143 0.356-0.143h4.5c0.142 0 0.261 0.048 0.357 0.144 0.09533 0.096 0.143 0.215 0.143 0.357s-0.04767 0.26067-0.143 0.356-0.21433 0.143-0.357 0.143h-4.499zm3.21 8.498c0.41133 0 0.76433-0.147 1.059-0.441 0.294-0.2947 0.441-0.6477 0.441-1.059s-0.147-0.7643-0.441-1.059-0.647-0.4417-1.059-0.441-0.765 0.1477-1.059 0.441c-0.294 0.2947-0.441 0.6477-0.441 1.059s0.147 0.7643 0.441 1.059c0.29467 0.294 0.64767 0.441 1.059 0.441zm9.77 0c0.4113 0 0.764-0.147 1.058-0.441 0.294-0.2947 0.441-0.6477 0.441-1.059s-0.147-0.7643-0.441-1.059-0.647-0.4417-1.059-0.441-0.7647 0.1477-1.058 0.441c-0.2947 0.2947-0.442 0.6477-0.442 1.059s0.147 0.7643 0.441 1.059c0.2947 0.294 0.648 0.441 1.06 0.441zm-1.384-4.75h4.653l0.176-0.89-2.138-2.86h-1.818l-0.873 3.75z" fill="currentColor"/>
</svg>
