<?xml version="1.0" encoding="UTF-8"?>
<svg fill="none" viewBox="0 0 64 24" xmlns="http://www.w3.org/2000/svg">
<path d="m52 4.1221-1.0755-1.1055c-2.5245-2.595-7.1535-1.6995-8.8245 1.563-0.7845 1.5345-0.9615 3.75 0.471 6.5775 1.38 2.7225 4.251 5.9835 9.429 9.5355 5.178-3.552 8.0475-6.813 9.429-9.5355 1.4325-2.829 1.257-5.043 0.471-6.5775-1.671-3.2625-6.3-4.1595-8.8245-1.5645l-1.0755 1.107zm0 18.378c-23-15.198-7.0815-27.06-0.264-20.786 0.09 0.0825 0.1785 0.168 0.264 0.2565 0.0846-0.08842 0.1727-0.17348 0.264-0.255 6.816-6.279 22.736 5.5845-0.264 20.784z" fill="#212529"/>
<g clip-path="url(#a)">
<path d="m12 23.069c0.7956 0 1.5587-0.2906 2.1213-0.808 0.5626-0.5173 0.8787-1.219 0.8787-1.9506h-6c0 0.7316 0.31607 1.4333 0.87868 1.9506 0.56262 0.5174 1.3257 0.808 2.1213 0.808zm0-19.423-1.1955 0.22207c-1.3561 0.25407-2.575 0.93118-3.4505 1.9167s-1.3538 2.219-1.354 3.4916c0 0.86617-0.201 3.0304-0.6885 5.1614-0.24 1.0579-0.564 2.16-0.9945 3.1145h15.366c-0.4305-0.9545-0.753-2.0552-0.9945-3.1145-0.4875-2.131-0.6885-4.2952-0.6885-5.1614-5e-4 -1.2723-0.479-2.5054-1.3545-3.4907-0.8754-0.98526-2.0942-1.6622-3.45-1.9162l-1.1955-0.22483v0.00138zm9.33 13.906c0.3345 0.6165 0.7215 1.1048 1.17 1.3793h-21c0.4485-0.2745 0.8355-0.7628 1.17-1.3793 1.35-2.4828 1.83-7.0621 1.83-8.2759 0-3.3379 2.58-6.1241 6.0075-6.76-0.0209-0.19179 0.0021-0.38549 0.0676-0.56859 0.0654-0.18311 0.1719-0.35157 0.3125-0.49451 0.1407-0.14294 0.3123-0.25719 0.5039-0.33538s0.3989-0.11859 0.6085-0.11859 0.4169 0.040403 0.6085 0.11859 0.3632 0.19244 0.5039 0.33538c0.1406 0.14294 0.2471 0.3114 0.3125 0.49451 0.0655 0.1831 0.0885 0.3768 0.0676 0.56859 1.6954 0.3171 3.2196 1.1632 4.3144 2.3952 1.0947 1.2319 1.6929 2.7739 1.6931 4.3648 0 1.2138 0.48 5.7931 1.83 8.2759z" fill="#212529"/>
</g>
<defs>
<clipPath id="a">
<rect transform="translate(0 1)" width="24" height="22.069" fill="#fff"/>
</clipPath>
</defs>
</svg>
