<?xml version="1.0" encoding="UTF-8"?>
<svg viewBox="0 0 428 66" xmlns="http://www.w3.org/2000/svg">
<path d="m59.75 33.75v-5.2575c0-0.3675 0.375-0.7425 0.75-0.7425h3c0.375 0 0.75 0.375 0.75 0.75v5.25c0 0.1989 0.079 0.3897 0.2197 0.5303 0.1406 0.1407 0.3314 0.2197 0.5303 0.2197h6c0.1989 0 0.3897-0.079 0.5303-0.2197 0.1407-0.1406 0.2197-0.3314 0.2197-0.5303v-10.5c2e-4 -0.0986-0.0191-0.1962-0.0567-0.2873-0.0375-0.0911-0.0927-0.1739-0.1623-0.2437l-2.031-2.0295v-4.9395c0-0.1989-0.079-0.3897-0.2197-0.5303-0.1406-0.1407-0.3314-0.2197-0.5303-0.2197h-1.5c-0.1989 0-0.3897 0.079-0.5303 0.2197-0.1407 0.1406-0.2197 0.3314-0.2197 0.5303v1.9395l-3.969-3.9705c-0.0697-0.0698-0.1524-0.1253-0.2435-0.1631-0.0912-0.0378-0.1888-0.0572-0.2875-0.0572-0.0986 0-0.1963 0.0194-0.2874 0.0572-0.0912 0.0378-0.1739 0.0933-0.2436 0.1631l-9 9c-0.0696 0.0698-0.1248 0.1526-0.1623 0.2437-0.0376 0.0911-0.0569 0.1887-0.0567 0.2873v10.5c0 0.1989 0.079 0.3897 0.2197 0.5303 0.1406 0.1407 0.3314 0.2197 0.5303 0.2197h6c0.1989 0 0.3897-0.079 0.5303-0.2197 0.1407-0.1406 0.2197-0.3314 0.2197-0.5303z" fill="#212529"/>
<path d="m48.717 48v-7.2727h1.3175v3.0788h3.37v-3.0788h1.3211v7.2727h-1.3211v-3.0895h-3.37v3.0895h-1.3175zm9.3639 0.1065c-0.5327 0-0.9943-0.1172-1.385-0.3515-0.3906-0.2344-0.6936-0.5623-0.9091-0.9837-0.213-0.4214-0.3196-0.9138-0.3196-1.4773 0-0.5634 0.1066-1.057 0.3196-1.4808 0.2155-0.4238 0.5185-0.7528 0.9091-0.9872 0.3907-0.2344 0.8523-0.3516 1.385-0.3516 0.5326 0 0.9943 0.1172 1.3849 0.3516s0.6925 0.5634 0.9056 0.9872c0.2154 0.4238 0.3231 0.9174 0.3231 1.4808 0 0.5635-0.1077 1.0559-0.3231 1.4773-0.2131 0.4214-0.515 0.7493-0.9056 0.9837-0.3906 0.2343-0.8523 0.3515-1.3849 0.3515zm0.0071-1.0298c0.2888 0 0.5303-0.0793 0.7244-0.2379 0.1941-0.161 0.3386-0.3764 0.4333-0.6463 0.097-0.2699 0.1455-0.5706 0.1455-0.902 0-0.3338-0.0485-0.6357-0.1455-0.9056-0.0947-0.2722-0.2392-0.4888-0.4333-0.6498s-0.4356-0.2415-0.7244-0.2415c-0.2959 0-0.5422 0.0805-0.7387 0.2415-0.1941 0.161-0.3397 0.3776-0.4367 0.6498-0.0947 0.2699-0.1421 0.5718-0.1421 0.9056 0 0.3314 0.0474 0.6321 0.1421 0.902 0.097 0.2699 0.2426 0.4853 0.4367 0.6463 0.1965 0.1586 0.4428 0.2379 0.7387 0.2379zm3.2976 0.9233v-5.4545h1.2287v0.9268h0.0639c0.1137-0.3125 0.3019-0.5563 0.5646-0.7315 0.2628-0.1776 0.5765-0.2664 0.9411-0.2664 0.3693 0 0.6806 0.09 0.9339 0.2699 0.2557 0.1776 0.4357 0.4202 0.5398 0.728h0.0568c0.1208-0.303 0.3244-0.5445 0.6108-0.7244 0.2889-0.1823 0.631-0.2735 1.0263-0.2735 0.5019 0 0.9115 0.1586 1.2287 0.4759 0.3172 0.3172 0.4759 0.7801 0.4759 1.3885v3.6612h-1.2891v-3.4624c0-0.3385-0.09-0.5859-0.2699-0.7421-0.1799-0.1587-0.4001-0.238-0.6605-0.238-0.3101 0-0.5528 0.0971-0.728 0.2912-0.1728 0.1918-0.2592 0.4415-0.2592 0.7493v3.402h-1.2607v-3.5156c0-0.2817-0.0852-0.5067-0.2557-0.6747-0.168-0.1681-0.3882-0.2522-0.6605-0.2522-0.1846 0-0.3527 0.0474-0.5042 0.1421-0.1515 0.0923-0.2723 0.2237-0.3622 0.3942-0.09 0.168-0.135 0.3645-0.135 0.5894v3.3168h-1.2855zm10.989 0.1065c-0.5469 0-1.0192-0.1136-1.4169-0.3409-0.3954-0.2296-0.6996-0.554-0.9127-0.973-0.213-0.4214-0.3196-0.9174-0.3196-1.4879 0-0.5611 0.1066-1.0535 0.3196-1.4773 0.2155-0.4261 0.5161-0.7576 0.902-0.9943 0.3859-0.2391 0.8393-0.3587 1.3601-0.3587 0.3362 0 0.6534 0.0545 0.9517 0.1634 0.3007 0.1065 0.5658 0.2722 0.7955 0.4971 0.232 0.2249 0.4143 0.5114 0.5468 0.8594 0.1326 0.3457 0.1989 0.7576 0.1989 1.2358v0.3942h-4.4709v-0.8665h3.2387c-0.0024-0.2462-0.0557-0.4652-0.1598-0.6569-0.1042-0.1942-0.2498-0.3469-0.4368-0.4581-0.1847-0.1113-0.4001-0.1669-0.6463-0.1669-0.2628 0-0.4936 0.0639-0.6925 0.1917-0.1989 0.1255-0.3539 0.2912-0.4652 0.4972-0.1089 0.2036-0.1645 0.4273-0.1669 0.6711v0.7564c0 0.3173 0.058 0.5895 0.174 0.8168 0.116 0.2249 0.2782 0.3977 0.4865 0.5185 0.2083 0.1183 0.4522 0.1775 0.7315 0.1775 0.1871 0 0.3563-0.026 0.5079-0.0781 0.1515-0.0545 0.2829-0.1338 0.3941-0.2379 0.1113-0.1042 0.1953-0.2332 0.2522-0.3871l1.2002 0.1349c-0.0757 0.3173-0.2201 0.5943-0.4332 0.831-0.2107 0.2344-0.4806 0.4167-0.8097 0.5469-0.329 0.1278-0.7054 0.1917-1.1292 0.1917z" fill="#152536"/>
<path d="m132.43 43.181h-1.328c-0.038-0.2178-0.108-0.4107-0.209-0.5788-0.102-0.1705-0.229-0.3149-0.38-0.4333-0.152-0.1183-0.325-0.2071-0.519-0.2663-0.192-0.0616-0.399-0.0923-0.621-0.0923-0.396 0-0.746 0.0994-1.051 0.2983-0.306 0.1965-0.545 0.4853-0.718 0.8664-0.173 0.3788-0.259 0.8417-0.259 1.3885 0 0.5564 0.086 1.0251 0.259 1.4063 0.175 0.3788 0.415 0.6652 0.718 0.8594 0.305 0.1917 0.654 0.2876 1.047 0.2876 0.218 0 0.422-0.0284 0.611-0.0852 0.192-0.0592 0.363-0.1456 0.515-0.2593 0.154-0.1136 0.283-0.2533 0.387-0.419 0.106-0.1657 0.18-0.3551 0.22-0.5682l1.328 0.0071c-0.049 0.3457-0.157 0.67-0.323 0.973-0.163 0.3031-0.378 0.5706-0.643 0.8026-0.265 0.2296-0.575 0.4096-0.93 0.5398-0.355 0.1278-0.749 0.1917-1.183 0.1917-0.639 0-1.209-0.1479-1.711-0.4439-0.502-0.2959-0.897-0.7232-1.186-1.2819s-0.434-1.2287-0.434-2.01c0-0.7836 0.146-1.4536 0.437-2.0099 0.291-0.5587 0.688-0.986 1.19-1.282 0.502-0.2959 1.07-0.4439 1.704-0.4439 0.405 0 0.782 0.0569 1.13 0.1705s0.658 0.2805 0.93 0.5007c0.272 0.2178 0.496 0.4853 0.671 0.8026 0.178 0.3148 0.294 0.6747 0.348 1.0795zm2.32 4.929c-0.346 0-0.657-0.0616-0.934-0.1847-0.275-0.1254-0.493-0.3101-0.654-0.554-0.158-0.2438-0.238-0.5445-0.238-0.9019 0-0.3078 0.057-0.5623 0.171-0.7635 0.113-0.2013 0.268-0.3622 0.465-0.483 0.196-0.1207 0.418-0.2119 0.664-0.2734 0.249-0.0639 0.505-0.1101 0.771-0.1385 0.319-0.0332 0.578-0.0628 0.777-0.0888 0.199-0.0284 0.344-0.071 0.433-0.1278 0.093-0.0592 0.139-0.1504 0.139-0.2735v-0.0213c0-0.2675-0.079-0.4747-0.238-0.6214-0.159-0.1468-0.387-0.2202-0.685-0.2202-0.315 0-0.565 0.0687-0.75 0.206-0.182 0.1373-0.305 0.2994-0.369 0.4865l-1.2-0.1705c0.094-0.3314 0.251-0.6084 0.469-0.831 0.217-0.2249 0.484-0.3929 0.799-0.5042 0.314-0.1137 0.662-0.1705 1.044-0.1705 0.262 0 0.524 0.0308 0.784 0.0924 0.261 0.0615 0.499 0.1633 0.714 0.3054 0.216 0.1396 0.388 0.3302 0.519 0.5717 0.132 0.2415 0.198 0.5433 0.198 0.9055v3.6506h-1.235v-0.7493h-0.043c-0.078 0.1515-0.188 0.2936-0.33 0.4261-0.14 0.1303-0.316 0.2356-0.529 0.3161-0.211 0.0781-0.458 0.1172-0.742 0.1172zm0.333-0.9446c0.258 0 0.482-0.0509 0.671-0.1527 0.19-0.1042 0.335-0.2415 0.437-0.4119 0.104-0.1705 0.157-0.3563 0.157-0.5576v-0.6427c-0.041 0.0331-0.109 0.0639-0.206 0.0923-0.095 0.0284-0.202 0.0533-0.32 0.0746s-0.236 0.0402-0.352 0.0568-0.216 0.0308-0.301 0.0426c-0.192 0.026-0.364 0.0687-0.515 0.1278-0.152 0.0592-0.271 0.1421-0.359 0.2486-0.088 0.1042-0.131 0.2391-0.131 0.4049 0 0.2367 0.086 0.4154 0.259 0.5362 0.173 0.1207 0.393 0.1811 0.66 0.1811zm3.439 0.8345v-5.4545h1.247v0.909h0.056c0.1-0.3148 0.27-0.5575 0.512-0.7279 0.244-0.1729 0.522-0.2593 0.834-0.2593 0.071 0 0.151 0.0036 0.238 0.0107 0.09 0.0047 0.165 0.013 0.224 0.0248v1.1826c-0.055-0.019-0.141-0.0355-0.259-0.0497-0.116-0.0166-0.229-0.0249-0.338-0.0249-0.234 0-0.445 0.0509-0.632 0.1527-0.184 0.0994-0.33 0.2379-0.437 0.4155-0.106 0.1775-0.159 0.3823-0.159 0.6143v3.2067h-1.286zm6.582-5.4545v0.9943h-3.136v-0.9943h3.136zm-2.362-1.3069h1.286v5.1208c0 0.1728 0.026 0.3054 0.078 0.3977 0.054 0.09 0.125 0.1515 0.213 0.1847 0.087 0.0331 0.184 0.0497 0.291 0.0497 0.081 0 0.154-0.0059 0.22-0.0178 0.069-0.0118 0.121-0.0225 0.156-0.0319l0.217 1.0049c-0.069 0.0237-0.167 0.0497-0.295 0.0782-0.125 0.0284-0.279 0.0449-0.461 0.0497-0.322 0.0094-0.612-0.0391-0.87-0.1456-0.258-0.1089-0.463-0.277-0.615-0.5043-0.149-0.2273-0.222-0.5113-0.22-0.8523v-5.3338z" fill="#152536"/>
<path d="m135 13.5c0.995 0 1.948 0.3951 2.652 1.0983 0.703 0.7033 1.098 1.6571 1.098 2.6517v0.75h-7.5v-0.75c0-0.9946 0.395-1.9484 1.098-2.6517 0.704-0.7032 1.657-1.0983 2.652-1.0983zm5.25 4.5v-0.75c0-1.3924-0.553-2.7277-1.538-3.7123-0.984-0.9846-2.32-1.5377-3.712-1.5377s-2.728 0.5531-3.712 1.5377c-0.985 0.9846-1.538 2.3199-1.538 3.7123v0.75h-5.25v15c0 0.7956 0.316 1.5587 0.879 2.1213 0.562 0.5626 1.325 0.8787 2.121 0.8787h15c0.796 0 1.559-0.3161 2.121-0.8787 0.563-0.5626 0.879-1.3257 0.879-2.1213v-15h-5.25zm-14.25 1.5h18v13.5c0 0.3978-0.158 0.7794-0.439 1.0607-0.282 0.2813-0.663 0.4393-1.061 0.4393h-15c-0.398 0-0.779-0.158-1.061-0.4393-0.281-0.2813-0.439-0.6629-0.439-1.0607v-13.5z" fill="#212529"/>
<path d="m202.13 44.364c0 0.7837-0.147 1.4548-0.44 2.0135-0.292 0.5564-0.689 0.9825-1.194 1.2784-0.502 0.296-1.071 0.4439-1.708 0.4439s-1.207-0.1479-1.711-0.4439c-0.502-0.2983-0.9-0.7256-1.194-1.2819-0.291-0.5587-0.436-1.2287-0.436-2.01 0-0.7836 0.145-1.4536 0.436-2.0099 0.294-0.5587 0.692-0.986 1.194-1.282 0.504-0.2959 1.074-0.4439 1.711-0.4439s1.206 0.148 1.708 0.4439c0.505 0.296 0.902 0.7233 1.194 1.282 0.293 0.5563 0.44 1.2263 0.44 2.0099zm-1.325 0c0-0.5516-0.086-1.0168-0.259-1.3956-0.17-0.3811-0.407-0.6688-0.71-0.8629-0.303-0.1965-0.652-0.2947-1.048-0.2947-0.395 0-0.744 0.0982-1.047 0.2947-0.303 0.1941-0.541 0.4818-0.714 0.8629-0.171 0.3788-0.256 0.844-0.256 1.3956s0.085 1.018 0.256 1.3992c0.173 0.3788 0.411 0.6664 0.714 0.8629 0.303 0.1941 0.652 0.2912 1.047 0.2912 0.396 0 0.745-0.0971 1.048-0.2912 0.303-0.1965 0.54-0.4841 0.71-0.8629 0.173-0.3812 0.259-0.8476 0.259-1.3992zm2.114 3.6364v-5.4545h1.246v0.909h0.057c0.099-0.3148 0.27-0.5575 0.511-0.7279 0.244-0.1729 0.522-0.2593 0.835-0.2593 0.071 0 0.15 0.0036 0.238 0.0107 0.09 0.0047 0.164 0.013 0.223 0.0248v1.1826c-0.054-0.019-0.14-0.0355-0.259-0.0497-0.116-0.0166-0.228-0.0249-0.337-0.0249-0.235 0-0.445 0.0509-0.632 0.1527-0.185 0.0994-0.331 0.2379-0.437 0.4155-0.107 0.1775-0.16 0.3823-0.16 0.6143v3.2067h-1.285zm5.364 0.0959c-0.429 0-0.812-0.1101-1.151-0.3303-0.338-0.2201-0.606-0.5397-0.802-0.9588-0.197-0.419-0.295-0.928-0.295-1.527 0-0.606 0.1-1.1174 0.298-1.5341 0.202-0.419 0.473-0.735 0.814-0.9481 0.341-0.2155 0.721-0.3232 1.14-0.3232 0.319 0 0.582 0.0545 0.788 0.1634 0.206 0.1065 0.369 0.2355 0.49 0.3871 0.121 0.1491 0.214 0.29 0.281 0.4225h0.053v-2.7201h1.289v7.2727h-1.264v-0.8594h-0.078c-0.067 0.1326-0.163 0.2735-0.288 0.4226-0.126 0.1468-0.291 0.2723-0.497 0.3764-0.206 0.1042-0.465 0.1563-0.778 0.1563zm0.359-1.0547c0.272 0 0.504-0.0734 0.696-0.2202 0.191-0.1491 0.337-0.3563 0.436-0.6214 0.1-0.2652 0.15-0.5741 0.15-0.9269 0-0.3527-0.05-0.6593-0.15-0.9197-0.097-0.2604-0.241-0.4628-0.433-0.6073-0.189-0.1444-0.422-0.2166-0.699-0.2166-0.287 0-0.526 0.0746-0.718 0.2237-0.191 0.1492-0.336 0.3552-0.433 0.6179-0.097 0.2628-0.145 0.5635-0.145 0.902 0 0.3409 0.048 0.6452 0.145 0.9127 0.1 0.2651 0.245 0.4746 0.437 0.6285 0.194 0.1515 0.432 0.2273 0.714 0.2273zm5.93 1.0653c-0.546 0-1.019-0.1136-1.416-0.3409-0.396-0.2296-0.7-0.554-0.913-0.973-0.213-0.4214-0.32-0.9174-0.32-1.4879 0-0.5611 0.107-1.0535 0.32-1.4773 0.215-0.4261 0.516-0.7576 0.902-0.9943 0.386-0.2391 0.839-0.3587 1.36-0.3587 0.336 0 0.653 0.0545 0.952 0.1634 0.3 0.1065 0.566 0.2722 0.795 0.4971 0.232 0.2249 0.414 0.5114 0.547 0.8594 0.133 0.3457 0.199 0.7576 0.199 1.2358v0.3942h-4.471v-0.8665h3.239c-3e-3 -0.2462-0.056-0.4652-0.16-0.6569-0.104-0.1942-0.25-0.3469-0.437-0.4581-0.185-0.1113-0.4-0.1669-0.646-0.1669-0.263 0-0.494 0.0639-0.693 0.1917-0.199 0.1255-0.354 0.2912-0.465 0.4972-0.109 0.2036-0.164 0.4273-0.167 0.6711v0.7564c0 0.3173 0.058 0.5895 0.174 0.8168 0.116 0.2249 0.278 0.3977 0.487 0.5185 0.208 0.1183 0.452 0.1775 0.731 0.1775 0.187 0 0.357-0.026 0.508-0.0781 0.152-0.0545 0.283-0.1338 0.394-0.2379 0.111-0.1042 0.196-0.2332 0.252-0.3871l1.201 0.1349c-0.076 0.3173-0.221 0.5943-0.434 0.831-0.21 0.2344-0.48 0.4167-0.809 0.5469-0.329 0.1278-0.706 0.1917-1.13 0.1917zm3.113-0.1065v-5.4545h1.247v0.909h0.057c0.099-0.3148 0.27-0.5575 0.511-0.7279 0.244-0.1729 0.522-0.2593 0.835-0.2593 0.071 0 0.15 0.0036 0.237 0.0107 0.09 0.0047 0.165 0.013 0.224 0.0248v1.1826c-0.054-0.019-0.141-0.0355-0.259-0.0497-0.116-0.0166-0.228-0.0249-0.337-0.0249-0.235 0-0.445 0.0509-0.632 0.1527-0.185 0.0994-0.331 0.2379-0.437 0.4155-0.107 0.1775-0.16 0.3823-0.16 0.6143v3.2067h-1.286zm7.876-4.0128-1.172 0.1279c-0.033-0.1184-0.091-0.2297-0.174-0.3339-0.08-0.1041-0.189-0.1882-0.326-0.2521-0.138-0.0639-0.306-0.0959-0.505-0.0959-0.267 0-0.492 0.058-0.674 0.174-0.18 0.116-0.269 0.2664-0.267 0.451-2e-3 0.1587 0.056 0.2877 0.174 0.3871 0.121 0.0994 0.32 0.1811 0.597 0.245l0.93 0.1989c0.517 0.1113 0.9 0.2876 1.151 0.5291 0.253 0.2415 0.381 0.5576 0.384 0.9482-3e-3 0.3433-0.103 0.6463-0.302 0.9091-0.197 0.2604-0.47 0.464-0.821 0.6108-0.35 0.1467-0.752 0.2201-1.207 0.2201-0.668 0-1.205-0.1396-1.612-0.419-0.407-0.2817-0.65-0.6735-0.728-1.1754l1.253-0.1208c0.057 0.2462 0.178 0.4321 0.363 0.5576 0.184 0.1254 0.425 0.1882 0.72 0.1882 0.306 0 0.551-0.0628 0.736-0.1882 0.187-0.1255 0.28-0.2806 0.28-0.4652 0-0.1563-0.06-0.2853-0.181-0.3871-0.118-0.1018-0.303-0.1799-0.554-0.2344l-0.93-0.1953c-0.524-0.1089-0.911-0.2924-1.162-0.5504-0.251-0.2604-0.375-0.5895-0.373-0.9872-2e-3 -0.3362 0.089-0.6274 0.274-0.8736 0.187-0.2486 0.446-0.4404 0.778-0.5753 0.333-0.1373 0.718-0.206 1.154-0.206 0.639 0 1.142 0.1362 1.509 0.4084 0.369 0.2723 0.598 0.6404 0.685 1.1044z" fill="#152536"/>
<path d="m198 15.75c0-0.1989 0.079-0.3897 0.22-0.5303 0.14-0.1407 0.331-0.2197 0.53-0.2197h2.25c0.167 0 0.33 0.056 0.462 0.159 0.131 0.103 0.225 0.2472 0.265 0.4095l0.608 2.4315h17.415c0.114 0 0.226 0.026 0.329 0.076 0.102 0.0499 0.192 0.1226 0.262 0.2124 0.07 0.0897 0.119 0.1943 0.142 0.3058 0.024 0.1114 0.022 0.2268-6e-3 0.3373l-2.25 9c-0.04 0.1623-0.134 0.3065-0.265 0.4095-0.132 0.103-0.295 0.159-0.462 0.159h-13.5c-0.167 0-0.33-0.056-0.462-0.159-0.131-0.103-0.225-0.2472-0.265-0.4095l-2.858-11.432h-1.665c-0.199 0-0.39-0.079-0.53-0.2197-0.141-0.1406-0.22-0.3314-0.22-0.5303zm4.71 3.75 1.875 7.5h12.33l1.875-7.5h-16.08zm2.79 12c-0.398 0-0.779 0.158-1.061 0.4393-0.281 0.2813-0.439 0.6629-0.439 1.0607s0.158 0.7794 0.439 1.0607c0.282 0.2813 0.663 0.4393 1.061 0.4393s0.779-0.158 1.061-0.4393c0.281-0.2813 0.439-0.6629 0.439-1.0607s-0.158-0.7794-0.439-1.0607c-0.282-0.2813-0.663-0.4393-1.061-0.4393zm-3 1.5c0-0.7956 0.316-1.5587 0.879-2.1213 0.562-0.5626 1.325-0.8787 2.121-0.8787s1.559 0.3161 2.121 0.8787c0.563 0.5626 0.879 1.3257 0.879 2.1213s-0.316 1.5587-0.879 2.1213c-0.562 0.5626-1.325 0.8787-2.121 0.8787s-1.559-0.3161-2.121-0.8787c-0.563-0.5626-0.879-1.3257-0.879-2.1213zm13.5-1.5c-0.398 0-0.779 0.158-1.061 0.4393-0.281 0.2813-0.439 0.6629-0.439 1.0607s0.158 0.7794 0.439 1.0607c0.282 0.2813 0.663 0.4393 1.061 0.4393s0.779-0.158 1.061-0.4393c0.281-0.2813 0.439-0.6629 0.439-1.0607s-0.158-0.7794-0.439-1.0607c-0.282-0.2813-0.663-0.4393-1.061-0.4393zm-3 1.5c0-0.7956 0.316-1.5587 0.879-2.1213 0.562-0.5626 1.325-0.8787 2.121-0.8787s1.559 0.3161 2.121 0.8787c0.563 0.5626 0.879 1.3257 0.879 2.1213s-0.316 1.5587-0.879 2.1213c-0.562 0.5626-1.325 0.8787-2.121 0.8787s-1.559-0.3161-2.121-0.8787c-0.563-0.5626-0.879-1.3257-0.879-2.1213z" fill="#212529"/>
<path d="m275.65 48-2.052-7.2727h1.417l1.31 5.3444h0.067l1.4-5.3444h1.289l1.402 5.348h0.064l1.311-5.348h1.417l-2.053 7.2727h-1.3l-1.456-5.103h-0.057l-1.459 5.103h-1.3zm9.094 0.1101c-0.345 0-0.657-0.0616-0.934-0.1847-0.274-0.1254-0.492-0.3101-0.653-0.554-0.159-0.2438-0.238-0.5445-0.238-0.9019 0-0.3078 0.057-0.5623 0.17-0.7635 0.114-0.2013 0.269-0.3622 0.466-0.483 0.196-0.1207 0.417-0.2119 0.664-0.2734 0.248-0.0639 0.505-0.1101 0.77-0.1385 0.32-0.0332 0.579-0.0628 0.778-0.0888 0.199-0.0284 0.343-0.071 0.433-0.1278 0.092-0.0592 0.139-0.1504 0.139-0.2735v-0.0213c0-0.2675-0.08-0.4747-0.238-0.6214-0.159-0.1468-0.387-0.2202-0.686-0.2202-0.315 0-0.564 0.0687-0.749 0.206-0.182 0.1373-0.305 0.2994-0.369 0.4865l-1.201-0.1705c0.095-0.3314 0.251-0.6084 0.469-0.831 0.218-0.2249 0.484-0.3929 0.799-0.5042 0.315-0.1137 0.663-0.1705 1.044-0.1705 0.263 0 0.525 0.0308 0.785 0.0924 0.26 0.0615 0.498 0.1633 0.714 0.3054 0.215 0.1396 0.388 0.3302 0.518 0.5717 0.133 0.2415 0.199 0.5433 0.199 0.9055v3.6506h-1.236v-0.7493h-0.042c-0.078 0.1515-0.188 0.2936-0.331 0.4261-0.139 0.1303-0.316 0.2356-0.529 0.3161-0.21 0.0781-0.458 0.1172-0.742 0.1172zm0.334-0.9446c0.258 0 0.482-0.0509 0.671-0.1527 0.19-0.1042 0.335-0.2415 0.437-0.4119 0.104-0.1705 0.156-0.3563 0.156-0.5576v-0.6427c-0.04 0.0331-0.109 0.0639-0.206 0.0923-0.094 0.0284-0.201 0.0533-0.319 0.0746-0.119 0.0213-0.236 0.0402-0.352 0.0568s-0.217 0.0308-0.302 0.0426c-0.192 0.026-0.363 0.0687-0.515 0.1278-0.151 0.0592-0.271 0.1421-0.358 0.2486-0.088 0.1042-0.132 0.2391-0.132 0.4049 0 0.2367 0.087 0.4154 0.259 0.5362 0.173 0.1207 0.393 0.1811 0.661 0.1811zm4.724-6.4382v7.2727h-1.285v-7.2727h1.285zm2.208 0v7.2727h-1.286v-7.2727h1.286zm3.336 7.3792c-0.546 0-1.019-0.1136-1.417-0.3409-0.395-0.2296-0.699-0.554-0.912-0.973-0.213-0.4214-0.32-0.9174-0.32-1.4879 0-0.5611 0.107-1.0535 0.32-1.4773 0.215-0.4261 0.516-0.7576 0.902-0.9943 0.386-0.2391 0.839-0.3587 1.36-0.3587 0.336 0 0.653 0.0545 0.952 0.1634 0.3 0.1065 0.565 0.2722 0.795 0.4971 0.232 0.2249 0.414 0.5114 0.547 0.8594 0.133 0.3457 0.199 0.7576 0.199 1.2358v0.3942h-4.471v-0.8665h3.239c-3e-3 -0.2462-0.056-0.4652-0.16-0.6569-0.104-0.1942-0.25-0.3469-0.437-0.4581-0.185-0.1113-0.4-0.1669-0.646-0.1669-0.263 0-0.494 0.0639-0.693 0.1917-0.199 0.1255-0.354 0.2912-0.465 0.4972-0.109 0.2036-0.165 0.4273-0.167 0.6711v0.7564c0 0.3173 0.058 0.5895 0.174 0.8168 0.116 0.2249 0.278 0.3977 0.487 0.5185 0.208 0.1183 0.452 0.1775 0.731 0.1775 0.187 0 0.356-0.026 0.508-0.0781 0.151-0.0545 0.283-0.1338 0.394-0.2379 0.111-0.1042 0.195-0.2332 0.252-0.3871l1.201 0.1349c-0.076 0.3173-0.221 0.5943-0.434 0.831-0.21 0.2344-0.48 0.4167-0.809 0.5469-0.329 0.1278-0.706 0.1917-1.13 0.1917zm5.837-5.561v0.9943h-3.136v-0.9943h3.136zm-2.361-1.3069h1.285v5.1208c0 0.1728 0.026 0.3054 0.078 0.3977 0.055 0.09 0.126 0.1515 0.213 0.1847 0.088 0.0331 0.185 0.0497 0.291 0.0497 0.081 0 0.154-0.0059 0.221-0.0178 0.068-0.0118 0.12-0.0225 0.156-0.0319l0.216 1.0049c-0.068 0.0237-0.166 0.0497-0.294 0.0782-0.126 0.0284-0.28 0.0449-0.462 0.0497-0.322 0.0094-0.612-0.0391-0.87-0.1456-0.258-0.1089-0.463-0.277-0.614-0.5043-0.149-0.2273-0.223-0.5113-0.22-0.8523v-5.3338z" fill="#152536"/>
<path d="m293.2 12.489c0.332-0.0829 0.678-0.0893 1.012-0.0184 0.334 0.0708 0.648 0.2168 0.918 0.4271 0.269 0.2102 0.487 0.4791 0.638 0.7861 0.15 0.3071 0.228 0.6444 0.228 0.9862v1.83h0.75c0.597 0 1.169 0.2371 1.591 0.659 0.422 0.422 0.659 0.9943 0.659 1.591v13.5c0 0.5967-0.237 1.169-0.659 1.591s-0.994 0.659-1.591 0.659h-19.5c-0.597 0-1.169-0.237-1.591-0.659s-0.659-0.9943-0.659-1.591v-13.5c0-0.5792 0.223-1.1362 0.623-1.555 0.4-0.4189 0.946-0.6672 1.525-0.6935l16.056-4.0125zm-9.861 4.011h11.157v-1.83c0-0.1138-0.026-0.226-0.076-0.3282-0.051-0.1022-0.123-0.1917-0.213-0.2616-0.09-0.07-0.194-0.1186-0.306-0.1422-0.111-0.0236-0.226-0.0215-0.336 6e-3l-10.226 2.556zm-6.093 1.5c-0.199 0-0.39 0.079-0.53 0.2197-0.141 0.1406-0.22 0.3314-0.22 0.5303v13.5c0 0.1989 0.079 0.3897 0.22 0.5303 0.14 0.1407 0.331 0.2197 0.53 0.2197h19.5c0.199 0 0.39-0.079 0.53-0.2197 0.141-0.1406 0.22-0.3314 0.22-0.5303v-13.5c0-0.1989-0.079-0.3897-0.22-0.5303-0.14-0.1407-0.331-0.2197-0.53-0.2197h-19.5z" fill="#212529"/>
<path d="m349.83 48v-7.2727h2.728c0.558 0 1.027 0.1041 1.406 0.3125 0.381 0.2083 0.669 0.4948 0.863 0.8593 0.196 0.3623 0.295 0.7742 0.295 1.2358 0 0.4664-0.099 0.8807-0.295 1.2429-0.197 0.3623-0.487 0.6475-0.87 0.8559-0.384 0.2059-0.856 0.3089-1.417 0.3089h-1.808v-1.0831h1.63c0.327 0 0.595-0.0568 0.803-0.1704 0.208-0.1137 0.362-0.2699 0.462-0.4688 0.101-0.1989 0.152-0.4273 0.152-0.6854 0-0.258-0.051-0.4853-0.152-0.6818-0.1-0.1965-0.255-0.3492-0.466-0.4581-0.208-0.1112-0.477-0.1669-0.806-0.1669h-1.207v6.1719h-1.318zm5.979 0v-5.4545h1.247v0.909h0.056c0.1-0.3148 0.27-0.5575 0.512-0.7279 0.244-0.1729 0.522-0.2593 0.834-0.2593 0.071 0 0.151 0.0036 0.238 0.0107 0.09 0.0047 0.165 0.013 0.224 0.0248v1.1826c-0.055-0.019-0.141-0.0355-0.259-0.0497-0.116-0.0166-0.229-0.0249-0.338-0.0249-0.234 0-0.445 0.0509-0.632 0.1527-0.184 0.0994-0.33 0.2379-0.437 0.4155-0.106 0.1775-0.159 0.3823-0.159 0.6143v3.2067h-1.286zm5.72 0.1065c-0.533 0-0.995-0.1172-1.385-0.3515-0.391-0.2344-0.694-0.5623-0.909-0.9837-0.213-0.4214-0.32-0.9138-0.32-1.4773 0-0.5634 0.107-1.057 0.32-1.4808 0.215-0.4238 0.518-0.7528 0.909-0.9872 0.39-0.2344 0.852-0.3516 1.385-0.3516 0.532 0 0.994 0.1172 1.385 0.3516 0.39 0.2344 0.692 0.5634 0.905 0.9872 0.216 0.4238 0.323 0.9174 0.323 1.4808 0 0.5635-0.107 1.0559-0.323 1.4773-0.213 0.4214-0.515 0.7493-0.905 0.9837-0.391 0.2343-0.853 0.3515-1.385 0.3515zm7e-3 -1.0298c0.289 0 0.53-0.0793 0.724-0.2379 0.194-0.161 0.339-0.3764 0.433-0.6463 0.097-0.2699 0.146-0.5706 0.146-0.902 0-0.3338-0.049-0.6357-0.146-0.9056-0.094-0.2722-0.239-0.4888-0.433-0.6498s-0.435-0.2415-0.724-0.2415c-0.296 0-0.542 0.0805-0.739 0.2415-0.194 0.161-0.34 0.3776-0.437 0.6498-0.094 0.2699-0.142 0.5718-0.142 0.9056 0 0.3314 0.048 0.6321 0.142 0.902 0.097 0.2699 0.243 0.4853 0.437 0.6463 0.197 0.1586 0.443 0.2379 0.739 0.2379zm6.06-4.5312v0.9943h-3.224v-0.9943h3.224zm-2.418 5.4545v-5.9695c0-0.3669 0.076-0.6723 0.227-0.9162 0.154-0.2438 0.36-0.4261 0.618-0.5468 0.258-0.1208 0.544-0.1811 0.859-0.1811 0.223 0 0.421 0.0177 0.593 0.0532 0.173 0.0355 0.301 0.0675 0.384 0.0959l-0.256 0.9943c-0.054-0.0165-0.123-0.0331-0.206-0.0497-0.083-0.0189-0.175-0.0284-0.277-0.0284-0.239 0-0.408 0.058-0.508 0.174-0.097 0.1136-0.145 0.277-0.145 0.4901v5.8842h-1.289zm3.025 0v-5.4545h1.285v5.4545h-1.285zm0.646-6.2287c-0.203 0-0.379-0.0675-0.525-0.2024-0.147-0.1373-0.221-0.3019-0.221-0.4936 0-0.1941 0.074-0.3587 0.221-0.4936 0.146-0.1373 0.322-0.206 0.525-0.206 0.206 0 0.381 0.0687 0.526 0.206 0.147 0.1349 0.22 0.2995 0.22 0.4936 0 0.1917-0.073 0.3563-0.22 0.4936-0.145 0.1349-0.32 0.2024-0.526 0.2024zm2.847-1.044v7.2727h-1.286v-7.2727h1.286zm3.336 7.3792c-0.546 0-1.019-0.1136-1.416-0.3409-0.396-0.2296-0.7-0.554-0.913-0.973-0.213-0.4214-0.32-0.9174-0.32-1.4879 0-0.5611 0.107-1.0535 0.32-1.4773 0.215-0.4261 0.516-0.7576 0.902-0.9943 0.386-0.2391 0.839-0.3587 1.36-0.3587 0.336 0 0.653 0.0545 0.952 0.1634 0.3 0.1065 0.566 0.2722 0.795 0.4971 0.232 0.2249 0.414 0.5114 0.547 0.8594 0.133 0.3457 0.199 0.7576 0.199 1.2358v0.3942h-4.471v-0.8665h3.239c-3e-3 -0.2462-0.056-0.4652-0.16-0.6569-0.104-0.1942-0.25-0.3469-0.437-0.4581-0.185-0.1113-0.4-0.1669-0.646-0.1669-0.263 0-0.494 0.0639-0.693 0.1917-0.199 0.1255-0.354 0.2912-0.465 0.4972-0.109 0.2036-0.164 0.4273-0.167 0.6711v0.7564c0 0.3173 0.058 0.5895 0.174 0.8168 0.116 0.2249 0.278 0.3977 0.487 0.5185 0.208 0.1183 0.452 0.1775 0.731 0.1775 0.187 0 0.357-0.026 0.508-0.0781 0.152-0.0545 0.283-0.1338 0.394-0.2379 0.111-0.1042 0.196-0.2332 0.252-0.3871l1.201 0.1349c-0.076 0.3173-0.221 0.5943-0.434 0.831-0.21 0.2344-0.48 0.4167-0.809 0.5469-0.329 0.1278-0.706 0.1917-1.13 0.1917z" fill="#152536"/>
<path d="m363 24c1.193 0 2.338-0.4741 3.182-1.318s1.318-1.9885 1.318-3.182-0.474-2.3381-1.318-3.182-1.989-1.318-3.182-1.318-2.338 0.4741-3.182 1.318-1.318 1.9885-1.318 3.182 0.474 2.3381 1.318 3.182 1.989 1.318 3.182 1.318zm3-4.5c0 0.7956-0.316 1.5587-0.879 2.1213-0.562 0.5626-1.325 0.8787-2.121 0.8787s-1.559-0.3161-2.121-0.8787c-0.563-0.5626-0.879-1.3257-0.879-2.1213s0.316-1.5587 0.879-2.1213c0.562-0.5626 1.325-0.8787 2.121-0.8787s1.559 0.3161 2.121 0.8787c0.563 0.5626 0.879 1.3257 0.879 2.1213zm6 12c0 1.5-1.5 1.5-1.5 1.5h-15s-1.5 0-1.5-1.5 1.5-6 9-6 9 4.5 9 6zm-1.5-6e-3c-1e-3 -0.369-0.231-1.479-1.248-2.496-0.978-0.978-2.818-1.998-6.252-1.998-3.435 0-5.274 1.02-6.252 1.998-1.017 1.017-1.245 2.127-1.248 2.496h15z" fill="#212529"/>
</svg>
