<?xml version="1.0" encoding="UTF-8"?>
<svg viewBox="0 0 16 17" xmlns="http://www.w3.org/2000/svg">
<rect transform="translate(0 .5)" width="16" height="16" fill="#fff" fill-opacity=".01"/>
<path d="m10.441 12.798-1.4122-1.4131c-0.54614 0.1952-1.1365 0.2314-1.7024 0.1042-0.56589-0.1271-1.084-0.4123-1.4942-0.8224-0.41012-0.4102-0.69535-0.92831-0.82249-1.4942-0.12715-0.56589-0.09099-1.1562 0.10427-1.7024l-1.8025-1.8025c-1.491 1.3256-2.3118 2.8324-2.3118 2.8324s2.625 4.8125 7 4.8125c0.84035-0.0029 1.6712-0.178 2.4412-0.5145zm-4.8824-8.596c0.77005-0.3365 1.6009-0.51161 2.4412-0.5145 4.375 0 7 4.8125 7 4.8125s-0.8216 1.5059-2.3109 2.8333l-1.8042-1.8043c0.1952-0.54614 0.2314-1.1365 0.1042-1.7024-0.1271-0.56589-0.4123-1.084-0.8224-1.4942-0.41016-0.41012-0.92831-0.69535-1.4942-0.82249-0.56589-0.12715-1.1562-0.09099-1.7024 0.10427l-1.4114-1.4122z" fill="#6C757D"/>
<path d="m5.8346 8.1902c-0.04813 0.33627-0.01729 0.67913 0.09009 1.0014s0.28834 0.61513 0.52854 0.85537c0.24021 0.2402 0.53305 0.4211 0.85533 0.5285s0.66514 0.1382 1.0014 0.0901l-2.4762-2.4754h8.8e-4zm4.3312 0.6195-2.4754-2.4762c0.33628-0.04813 0.67914-0.01729 1.0014 0.09009s0.61512 0.28834 0.85533 0.52855c0.2402 0.2402 0.42116 0.53304 0.52851 0.85532 0.1074 0.32228 0.1383 0.66514 0.0901 1.0014v8.7e-4z" fill="#6C757D"/>
<path d="m12.94 14.06-10.5-10.5 0.6195-0.6195 10.5 10.5-0.6195 0.6195z" clip-rule="evenodd" fill="#6C757D" fill-rule="evenodd"/>
</svg>
