<?xml version="1.0" encoding="UTF-8"?>
<svg fill="none" viewBox="0 0 14 15" xmlns="http://www.w3.org/2000/svg">
<g clip-path="url(#a)" fill="#6C757D">
<path d="m2.1875 8.375c0-0.46413 0.18437-0.90925 0.51256-1.2374s0.77331-0.51256 1.2374-0.51256h6.125c0.4641 0 0.9092 0.18437 1.2374 0.51256s0.5126 0.77331 0.5126 1.2374v4.375c0 0.4641-0.1844 0.9092-0.5126 1.2374s-0.7733 0.5126-1.2374 0.5126h-6.125c-0.46413 0-0.90925-0.1844-1.2374-0.5126s-0.51256-0.7733-0.51256-1.2374v-4.375z"/>
<path d="m3.9375 4c0-0.81223 0.32266-1.5912 0.89699-2.1655s1.3533-0.89699 2.1655-0.89699 1.5912 0.32266 2.1655 0.89699 0.89699 1.3533 0.89699 2.1655v2.625h-0.875v-2.625c0-0.58016-0.23047-1.1366-0.6407-1.5468-0.41024-0.41023-0.96664-0.6407-1.5468-0.6407s-1.1366 0.23047-1.5468 0.6407c-0.41023 0.41024-0.6407 0.96664-0.6407 1.5468v2.625h-0.875v-2.625z" clip-rule="evenodd" fill-rule="evenodd"/>
</g>
<defs>
<clipPath id="a">
<rect transform="translate(0 .5)" width="14" height="14" fill="#fff"/>
</clipPath>
</defs>
</svg>
