<?xml version="1.0" encoding="UTF-8"?>
<svg fill="none" viewBox="0 0 16 17" xmlns="http://www.w3.org/2000/svg">
<g clip-path="url(#a)">
<path d="m11.742 10.844c0.9683-1.3213 1.402-2.9595 1.2143-4.5869-0.1876-1.6273-0.9828-3.1238-2.2265-4.19-1.2436-1.0662-2.844-1.6235-4.4809-1.5605s-3.1896 0.74188-4.3476 1.9006c-1.1579 1.1587-1.8356 2.712-1.8975 4.3489-0.061902 1.637 0.49656 3.2369 1.5637 4.4798 1.0671 1.2429 2.5641 2.037 4.1916 2.2236 1.6275 0.1865 3.2654-0.2484 4.5859-1.2176h-1e-3c0.03 0.04 0.062 0.078 0.098 0.115l3.85 3.85c0.1876 0.1876 0.4419 0.2931 0.7072 0.2932s0.5197-0.1052 0.7073-0.2927c0.1877-0.1875 0.2932-0.4419 0.2932-0.7072 1e-4 -0.2652-0.1051-0.5197-0.2927-0.7073l-3.85-3.85c-0.0357-0.0362-0.0742-0.0696-0.115-0.1v1e-3zm0.258-3.844c0 0.72227-0.1422 1.4375-0.4186 2.1048s-0.6815 1.2736-1.1923 1.7844c-0.51069 0.5107-1.117 0.9158-1.7843 1.1922s-1.3825 0.4187-2.1048 0.4187-1.4375-0.1423-2.1048-0.4187c-0.66729-0.2764-1.2736-0.6815-1.7843-1.1922-0.51073-0.5108-0.91585-1.1171-1.1922-1.7844s-0.41867-1.3825-0.41867-2.1048c0-1.4587 0.57947-2.8576 1.6109-3.8891s2.4304-1.6109 3.8891-1.6109 2.8576 0.57946 3.8891 1.6109c1.0315 1.0314 1.6109 2.4304 1.6109 3.8891z" fill="#6C757D"/>
</g>
<defs>
<clipPath id="a">
<rect transform="translate(0 .5)" width="16" height="16" fill="#fff"/>
</clipPath>
</defs>
</svg>
