<?xml version="1.0" encoding="UTF-8"?>
<svg fill="none" viewBox="0 0 14 11" xmlns="http://www.w3.org/2000/svg">
<path d="m0.04375 1.6106c0.088216-0.38654 0.30507-0.73167 0.61506-0.97886 0.30998-0.24719 0.69471-0.3818 1.0912-0.38177h10.5c0.3965-2.7e-5 0.7812 0.13458 1.0912 0.38177 0.31 0.24719 0.5268 0.59232 0.6151 0.97886l-6.9563 4.2516-6.9562-4.2516zm-0.04375 0.99924v6.216l5.0776-3.1132-5.0776-3.1028zm5.9159 3.6164-5.7487 3.5236c0.14204 0.29952 0.36621 0.55252 0.64643 0.72952 0.28022 0.1771 0.60497 0.2709 0.93644 0.2706h10.5c0.3314 1e-4 0.656-0.094 0.9361-0.2712s0.5041-0.4303 0.6459-0.7298l-5.7488-3.5236-1.0832 0.66237-1.0841-0.66237v8.7e-4zm3.0065-0.51275 5.0776 3.1124v-6.216l-5.0776 3.1028v8.7e-4z" clip-rule="evenodd" fill="#6C757D" fill-rule="evenodd"/>
</svg>
